<svg width="175" height="42" viewBox="0 0 175 42" fill="none" xmlns="http://www.w3.org/2000/svg">
<path d="M59.8606 21C59.8606 32.598 50.6604 42 39.3115 42C27.9625 42 18.7624 32.598 18.7624 21C18.7624 9.40202 27.9625 0 39.3115 0C50.6604 0 59.8606 9.40202 59.8606 21Z" fill="#3B83F6"/>
<path d="M16.9757 6.4832C10.7831 8.10579 6.20649 13.8483 6.2062 20.6828C6.2062 27.5175 10.783 33.2597 16.9757 34.8824V41.3656C7.3302 39.6372 0 31.0352 0 20.6828C0.000308649 10.3306 7.3303 1.72829 16.9757 0V6.4832Z" fill="#3B83F6"/>
<path d="M88.4824 14.5568V18.1239H76.671V14.5568H88.4824ZM79.6238 34.125V12.7096C79.6238 11.3931 79.9014 10.2975 80.4564 9.42272C81.0201 8.54792 81.7745 7.89395 82.7198 7.4608C83.6651 7.02765 84.7144 6.81108 85.8678 6.81108C86.683 6.81108 87.4071 6.87478 88.0402 7.00217C88.6732 7.12957 89.1415 7.24423 89.445 7.34615L88.5085 10.9133C88.309 10.8538 88.0575 10.7944 87.754 10.7349C87.4505 10.667 87.1122 10.633 86.7393 10.633C85.8634 10.633 85.2434 10.8411 84.8792 11.2572C84.5236 11.6649 84.3458 12.2509 84.3458 13.0153V34.125H79.6238Z" fill="white"/>
<path d="M96.8792 8.03409V34.125H92.1703V8.03409H96.8792Z" fill="white"/>
<path d="M110.567 34.5072C108.564 34.5072 106.834 34.0995 105.377 33.2842C103.929 32.4603 102.814 31.2968 102.034 29.7935C101.253 28.2817 100.863 26.5024 100.863 24.4556C100.863 22.4427 101.253 20.6761 102.034 19.1559C102.823 17.6271 103.924 16.438 105.338 15.5887C106.751 14.7309 108.412 14.302 110.32 14.302C111.551 14.302 112.713 14.4974 113.806 14.888C114.908 15.2702 115.879 15.8648 116.72 16.6716C117.57 17.4785 118.238 18.5061 118.723 19.7546C119.209 20.9946 119.452 22.4724 119.452 24.188V25.6021H103.074V22.4937H114.938C114.929 21.6104 114.734 20.8248 114.353 20.1368C113.971 19.4404 113.438 18.8926 112.752 18.4934C112.076 18.0942 111.287 17.8946 110.385 17.8946C109.422 17.8946 108.577 18.1239 107.848 18.5826C107.12 19.0327 106.552 19.6272 106.144 20.3661C105.745 21.0965 105.542 21.8991 105.533 22.7739V25.4875C105.533 26.6256 105.745 27.6023 106.17 28.4176C106.595 29.2245 107.189 29.8445 107.952 30.2776C108.716 30.7023 109.609 30.9146 110.632 30.9146C111.317 30.9146 111.937 30.8212 112.492 30.6343C113.047 30.439 113.529 30.1545 113.936 29.7808C114.344 29.4071 114.652 28.9442 114.86 28.3921L119.257 28.8762C118.979 30.0143 118.45 31.008 117.67 31.8573C116.898 32.6982 115.909 33.3521 114.704 33.8192C113.498 34.2779 112.119 34.5072 110.567 34.5072Z" fill="white"/>
<path d="M132.281 34.5072C130.278 34.5072 128.548 34.0995 127.091 33.2842C125.643 32.4603 124.528 31.2968 123.748 29.7935C122.967 28.2817 122.577 26.5024 122.577 24.4556C122.577 22.4427 122.967 20.6761 123.748 19.1559C124.537 17.6271 125.638 16.438 127.052 15.5887C128.465 14.7309 130.126 14.302 132.034 14.302C133.265 14.302 134.427 14.4974 135.52 14.888C136.621 15.2702 137.593 15.8648 138.434 16.6716C139.284 17.4785 139.952 18.5061 140.437 19.7546C140.923 20.9946 141.166 22.4724 141.166 24.188V25.6021H124.788V22.4937H136.652C136.643 21.6104 136.448 20.8248 136.066 20.1368C135.685 19.4404 135.152 18.8926 134.466 18.4934C133.79 18.0942 133.001 17.8946 132.099 17.8946C131.136 17.8946 130.291 18.1239 129.562 18.5826C128.834 19.0327 128.266 19.6272 127.858 20.3661C127.459 21.0965 127.256 21.8991 127.247 22.7739V25.4875C127.247 26.6256 127.459 27.6023 127.884 28.4176C128.309 29.2245 128.903 29.8445 129.666 30.2776C130.43 30.7023 131.323 30.9146 132.346 30.9146C133.031 30.9146 133.651 30.8212 134.206 30.6343C134.761 30.439 135.243 30.1545 135.65 29.7808C136.058 29.4071 136.366 28.9442 136.574 28.3921L140.971 28.8762C140.693 30.0143 140.164 31.008 139.384 31.8573C138.612 32.6982 137.623 33.3521 136.418 33.8192C135.212 34.2779 133.833 34.5072 132.281 34.5072Z" fill="white"/>
<path d="M155.127 14.5568V18.1239H143.64V14.5568H155.127ZM146.476 9.86861H151.185V28.2393C151.185 28.8593 151.281 29.3349 151.471 29.6661C151.671 29.9888 151.931 30.2097 152.252 30.3286C152.573 30.4475 152.928 30.5069 153.319 30.5069C153.613 30.5069 153.882 30.4857 154.125 30.4432C154.377 30.4008 154.567 30.3625 154.697 30.3286L155.491 33.9339C155.239 34.0188 154.88 34.1123 154.411 34.2142C153.952 34.3161 153.388 34.3755 152.72 34.3925C151.541 34.4265 150.478 34.2524 149.533 33.8702C148.588 33.4795 147.838 32.8765 147.283 32.0612C146.736 31.2458 146.468 30.2267 146.476 29.0036V9.86861Z" fill="white"/>
<path d="M174.571 19.7291L170.278 20.1878C170.157 19.7631 169.944 19.3639 169.641 18.9902C169.346 18.6165 168.947 18.315 168.444 18.0857C167.941 17.8564 167.325 17.7417 166.597 17.7417C165.617 17.7417 164.793 17.9498 164.125 18.366C163.466 18.7822 163.141 19.3215 163.15 19.9839C163.141 20.553 163.353 21.0158 163.787 21.3726C164.229 21.7293 164.958 22.0223 165.972 22.2516L169.38 22.965C171.271 23.3642 172.676 23.9969 173.595 24.8632C174.523 25.7295 174.991 26.8634 175 28.2647C174.991 29.4962 174.623 30.5834 173.894 31.5261C173.175 32.4603 172.173 33.1908 170.889 33.7173C169.606 34.2439 168.132 34.5072 166.467 34.5072C164.021 34.5072 162.053 34.0061 160.561 33.0039C159.069 31.9932 158.18 30.5876 157.894 28.7871L162.486 28.3539C162.694 29.2372 163.137 29.9039 163.813 30.354C164.489 30.8042 165.37 31.0293 166.454 31.0293C167.572 31.0293 168.47 30.8042 169.146 30.354C169.831 29.9039 170.174 29.3476 170.174 28.6851C170.174 28.1246 169.953 27.6617 169.511 27.2965C169.077 26.9313 168.4 26.651 167.481 26.4557L164.073 25.755C162.157 25.3643 160.739 24.7061 159.819 23.7804C158.9 22.8461 158.445 21.6656 158.454 20.2387C158.445 19.0327 158.779 17.988 159.455 17.1048C160.14 16.213 161.09 15.525 162.304 15.0409C163.527 14.5483 164.936 14.302 166.532 14.302C168.873 14.302 170.716 14.7904 172.06 15.7671C173.413 16.7438 174.25 18.0645 174.571 19.7291Z" fill="white"/>
</svg>
