<svg width="161" height="34" viewBox="0 0 161 34" fill="none" xmlns="http://www.w3.org/2000/svg">
<path d="M157.602 25.3277C157.602 24.8379 157.491 24.3848 157.271 23.9685C157.063 23.5399 156.628 23.1541 155.967 22.8113C155.318 22.4561 154.338 22.15 153.028 21.8928C151.926 21.6602 150.928 21.3846 150.034 21.0663C149.152 20.7479 148.399 20.3621 147.775 19.909C147.162 19.4559 146.691 18.9233 146.36 18.311C146.03 17.6987 145.864 16.9823 145.864 16.1619C145.864 15.3781 146.036 14.6373 146.379 13.9393C146.734 13.2413 147.23 12.6229 147.866 12.0841C148.515 11.5453 149.293 11.1228 150.199 10.8166C151.105 10.5105 152.116 10.3574 153.23 10.3574C154.822 10.3574 156.181 10.6391 157.308 11.2024C158.434 11.7657 159.298 12.5188 159.898 13.4617C160.498 14.3924 160.798 15.4271 160.798 16.566H157.4C157.4 16.0149 157.234 15.4822 156.904 14.9679C156.585 14.4413 156.114 14.0066 155.489 13.6637C154.877 13.3209 154.124 13.1494 153.23 13.1494C152.287 13.1494 151.522 13.2964 150.934 13.5903C150.358 13.8719 149.936 14.2332 149.666 14.674C149.409 15.1149 149.281 15.5802 149.281 16.07C149.281 16.4374 149.342 16.768 149.464 17.0619C149.599 17.3436 149.832 17.6069 150.162 17.8518C150.493 18.0844 150.958 18.3049 151.558 18.513C152.158 18.7212 152.924 18.9294 153.854 19.1376C155.483 19.5049 156.824 19.9458 157.877 20.4601C158.93 20.9744 159.714 21.6051 160.228 22.352C160.743 23.099 161 24.0052 161 25.0706C161 25.94 160.816 26.736 160.449 27.4585C160.094 28.181 159.573 28.8055 158.887 29.3321C158.214 29.8464 157.406 30.2505 156.463 30.5444C155.532 30.826 154.485 30.9669 153.322 30.9669C151.571 30.9669 150.089 30.6546 148.877 30.0301C147.664 29.4055 146.746 28.5973 146.121 27.6054C145.497 26.6135 145.185 25.5665 145.185 24.4644H148.601C148.65 25.3951 148.919 26.136 149.409 26.687C149.899 27.2258 150.499 27.6116 151.209 27.8442C151.92 28.0646 152.624 28.1749 153.322 28.1749C154.252 28.1749 155.03 28.0524 155.655 27.8075C156.291 27.5626 156.775 27.2258 157.106 26.7972C157.436 26.3686 157.602 25.8788 157.602 25.3277Z" fill="#183758"/>
<path d="M142.043 10.725V13.3333H131.298V10.725H142.043ZM134.935 5.89404H138.333V25.6769C138.333 26.3504 138.437 26.8586 138.645 27.2015C138.853 27.5444 139.123 27.7709 139.453 27.8811C139.784 27.9913 140.139 28.0464 140.519 28.0464C140.8 28.0464 141.094 28.0219 141.401 27.973C141.719 27.9117 141.958 27.8628 142.117 27.826L142.135 30.5997C141.866 30.6854 141.511 30.765 141.07 30.8384C140.641 30.9242 140.121 30.967 139.509 30.967C138.676 30.967 137.911 30.8017 137.213 30.4711C136.515 30.1404 135.957 29.5894 135.541 28.8179C135.137 28.0342 134.935 26.9811 134.935 25.6585V5.89404Z" fill="#183758"/>
<path d="M122.022 30.9669C120.638 30.9669 119.383 30.7342 118.256 30.2689C117.142 29.7913 116.181 29.1239 115.372 28.2667C114.576 27.4095 113.964 26.3931 113.535 25.2175C113.107 24.0419 112.893 22.7562 112.893 21.3601V20.5887C112.893 18.9722 113.131 17.5334 113.609 16.2721C114.087 14.9985 114.736 13.9209 115.556 13.0392C116.376 12.1575 117.307 11.4901 118.348 11.0371C119.389 10.584 120.467 10.3574 121.581 10.3574C123.001 10.3574 124.226 10.6023 125.255 11.0922C126.295 11.582 127.147 12.2677 127.808 13.1494C128.469 14.0189 128.959 15.0475 129.277 16.2353C129.596 17.4109 129.755 18.6967 129.755 20.0927V21.6173H114.913V18.8437H126.357V18.5865C126.308 17.7048 126.124 16.8476 125.806 16.0149C125.499 15.1822 125.01 14.4965 124.336 13.9576C123.663 13.4188 122.744 13.1494 121.581 13.1494C120.809 13.1494 120.099 13.3147 119.45 13.6454C118.801 13.9638 118.244 14.4413 117.779 15.0781C117.313 15.7149 116.952 16.4925 116.695 17.4109C116.438 18.3293 116.309 19.3886 116.309 20.5887V21.3601C116.309 22.3031 116.438 23.1909 116.695 24.0236C116.964 24.844 117.35 25.5665 117.852 26.1911C118.366 26.8156 118.985 27.3054 119.707 27.6605C120.442 28.0157 121.275 28.1932 122.205 28.1932C123.405 28.1932 124.422 27.9483 125.255 27.4585C126.087 26.9687 126.816 26.3135 127.44 25.4931L129.498 27.1279C129.069 27.7769 128.524 28.3953 127.863 28.9831C127.202 29.5709 126.387 30.0484 125.42 30.4158C124.465 30.7832 123.332 30.9669 122.022 30.9669Z" fill="#183758"/>
<path d="M102.074 30.9669C100.69 30.9669 99.435 30.7342 98.3084 30.2689C97.1941 29.7913 96.2328 29.1239 95.4246 28.2667C94.6286 27.4095 94.0163 26.3931 93.5877 25.2175C93.1591 24.0419 92.9448 22.7562 92.9448 21.3601V20.5887C92.9448 18.9722 93.1836 17.5334 93.6612 16.2721C94.1388 14.9985 94.7878 13.9209 95.6083 13.0392C96.4287 12.1575 97.3594 11.4901 98.4003 11.0371C99.4411 10.584 100.519 10.3574 101.633 10.3574C103.054 10.3574 104.278 10.6023 105.307 11.0922C106.348 11.582 107.199 12.2677 107.86 13.1494C108.521 14.0189 109.011 15.0475 109.33 16.2353C109.648 17.4109 109.807 18.6967 109.807 20.0927V21.6173H94.9654V18.8437H106.409V18.5865C106.36 17.7048 106.176 16.8476 105.858 16.0149C105.552 15.1822 105.062 14.4965 104.388 13.9576C103.715 13.4188 102.796 13.1494 101.633 13.1494C100.862 13.1494 100.151 13.3147 99.5024 13.6454C98.8534 13.9638 98.2962 14.4413 97.8308 15.0781C97.3655 15.7149 97.0043 16.4925 96.7471 17.4109C96.4899 18.3293 96.3614 19.3886 96.3614 20.5887V21.3601C96.3614 22.3031 96.4899 23.1909 96.7471 24.0236C97.0165 24.844 97.4022 25.5665 97.9043 26.1911C98.4186 26.8156 99.037 27.3054 99.7595 27.6605C100.494 28.0157 101.327 28.1932 102.258 28.1932C103.458 28.1932 104.474 27.9483 105.307 27.4585C106.14 26.9687 106.868 26.3135 107.493 25.4931L109.55 27.1279C109.121 27.7769 108.576 28.3953 107.915 28.9831C107.254 29.5709 106.44 30.0484 105.472 30.4158C104.517 30.7832 103.384 30.9669 102.074 30.9669Z" fill="#183758"/>
<path d="M88.3711 2.38525V30.5993H84.9546V2.38525H88.3711Z" fill="#183758"/>
<path d="M67.945 3.85498V30.5995H64.3999V3.85498H67.945ZM79.1498 15.8863V18.7886H67.1735V15.8863H79.1498ZM80.9683 3.85498V6.7572H67.1735V3.85498H80.9683Z" fill="#183758"/>
<circle cx="31.6047" cy="16.5202" r="16.5202" fill="#183758"/>
<path d="M13.6465 5.10156C8.66851 6.37853 4.98926 10.8952 4.98926 16.2715C4.98937 21.6476 8.66864 26.1634 13.6465 27.4404V32.541C5.8927 31.1809 0.000114028 24.415 0 16.2715C0 8.12786 5.89259 1.36112 13.6465 0.000976562V5.10156Z" fill="#183758"/>
</svg>
