<svg width="136" height="24" viewBox="0 0 136 24" fill="none" xmlns="http://www.w3.org/2000/svg">
<path d="M122.593 17.9339C122.593 17.587 122.515 17.2662 122.359 16.9714C122.212 16.6679 121.904 16.3948 121.435 16.152C120.976 15.9005 120.282 15.6838 119.354 15.5017C118.574 15.3369 117.867 15.1418 117.234 14.9164C116.61 14.691 116.077 14.4178 115.635 14.097C115.201 13.7762 114.867 13.399 114.633 12.9655C114.399 12.5319 114.282 12.0247 114.282 11.4437C114.282 10.8888 114.403 10.3642 114.646 9.86996C114.898 9.37573 115.249 8.93785 115.7 8.55633C116.159 8.17481 116.71 7.87567 117.351 7.6589C117.993 7.44213 118.708 7.33374 119.498 7.33374C120.625 7.33374 121.587 7.53317 122.385 7.93203C123.183 8.33089 123.794 8.86415 124.219 9.5318C124.644 10.1908 124.856 10.9235 124.856 11.7299H122.45C122.45 11.3397 122.333 10.9625 122.099 10.5983C121.873 10.2255 121.54 9.91765 121.097 9.67487C120.664 9.43209 120.131 9.31069 119.498 9.31069C118.83 9.31069 118.288 9.41474 117.872 9.62284C117.464 9.82227 117.165 10.0781 116.974 10.3902C116.792 10.7024 116.701 11.0319 116.701 11.3787C116.701 11.6388 116.745 11.8729 116.831 12.081C116.927 12.2805 117.091 12.4669 117.325 12.6403C117.56 12.805 117.889 12.9611 118.314 13.1085C118.739 13.2559 119.281 13.4033 119.94 13.5507C121.093 13.8109 122.042 14.123 122.788 14.4872C123.534 14.8514 124.089 15.2979 124.453 15.8268C124.817 16.3558 124.999 16.9974 124.999 17.7518C124.999 18.3674 124.869 18.931 124.609 19.4426C124.358 19.9542 123.989 20.3964 123.503 20.7692C123.027 21.1334 122.454 21.4195 121.787 21.6276C121.128 21.8271 120.386 21.9268 119.563 21.9268C118.323 21.9268 117.273 21.7057 116.415 21.2635C115.557 20.8212 114.906 20.249 114.464 19.5466C114.022 18.8443 113.801 18.1029 113.801 17.3226H116.22C116.255 17.9815 116.445 18.5061 116.792 18.8963C117.139 19.2778 117.564 19.551 118.067 19.7157C118.57 19.8718 119.068 19.9498 119.563 19.9498C120.222 19.9498 120.772 19.8631 121.214 19.6897C121.665 19.5163 122.008 19.2778 122.242 18.9744C122.476 18.6709 122.593 18.324 122.593 17.9339Z" fill="#183758"/>
<path d="M111.577 7.59375V9.44064H103.969V7.59375H111.577ZM106.544 4.1731H108.95V18.1809C108.95 18.6578 109.024 19.0176 109.171 19.2604C109.319 19.5032 109.509 19.6636 109.744 19.7416C109.978 19.8196 110.229 19.8587 110.498 19.8587C110.697 19.8587 110.905 19.8413 111.122 19.8066C111.348 19.7633 111.517 19.7286 111.629 19.7026L111.642 21.6665C111.452 21.7272 111.2 21.7836 110.888 21.8356C110.585 21.8963 110.216 21.9267 109.783 21.9267C109.193 21.9267 108.651 21.8096 108.157 21.5755C107.663 21.3414 107.268 20.9512 106.973 20.4049C106.687 19.85 106.544 19.1043 106.544 18.1678V4.1731Z" fill="#183758"/>
<path d="M97.4006 21.9268C96.4208 21.9268 95.5321 21.762 94.7344 21.4325C93.9453 21.0944 93.2646 20.6218 92.6924 20.0149C92.1288 19.4079 91.6952 18.6882 91.3917 17.8558C91.0883 17.0234 90.9365 16.113 90.9365 15.1245V14.5782C90.9365 13.4337 91.1056 12.4149 91.4438 11.5218C91.7819 10.62 92.2415 9.85696 92.8224 9.23266C93.4034 8.60836 94.0624 8.13579 94.7994 7.81497C95.5364 7.49415 96.2994 7.33374 97.0885 7.33374C98.0943 7.33374 98.9614 7.50716 99.6897 7.85399C100.427 8.20083 101.029 8.68639 101.498 9.31069C101.966 9.92632 102.313 10.6547 102.538 11.4957C102.764 12.3282 102.876 13.2386 102.876 14.2271V15.3066H92.3672V13.3426H100.47V13.1606C100.435 12.5363 100.305 11.9293 100.08 11.3397C99.8632 10.7501 99.5163 10.2645 99.0394 9.88297C98.5625 9.50145 97.9122 9.31069 97.0885 9.31069C96.5422 9.31069 96.0393 9.42775 95.5798 9.66186C95.1202 9.88731 94.7257 10.2255 94.3962 10.6764C94.0667 11.1272 93.8109 11.6778 93.6288 12.3282C93.4467 12.9785 93.3557 13.7285 93.3557 14.5782V15.1245C93.3557 15.7922 93.4467 16.4208 93.6288 17.0104C93.8196 17.5914 94.0927 18.1029 94.4482 18.5452C94.8124 18.9874 95.2503 19.3342 95.7619 19.5857C96.2821 19.8371 96.8717 19.9628 97.5307 19.9628C98.3804 19.9628 99.1001 19.7894 99.6897 19.4426C100.279 19.0957 100.795 18.6319 101.237 18.0509L102.694 19.2085C102.391 19.668 102.005 20.1059 101.537 20.5221C101.068 20.9383 100.492 21.2765 99.8068 21.5366C99.1305 21.7967 98.3284 21.9268 97.4006 21.9268Z" fill="#183758"/>
<path d="M83.2756 21.9268C82.2958 21.9268 81.4071 21.762 80.6094 21.4325C79.8203 21.0944 79.1396 20.6218 78.5674 20.0149C78.0038 19.4079 77.5702 18.6882 77.2667 17.8558C76.9633 17.0234 76.8115 16.113 76.8115 15.1245V14.5782C76.8115 13.4337 76.9806 12.4149 77.3188 11.5218C77.6569 10.62 78.1165 9.85696 78.6974 9.23266C79.2784 8.60836 79.9374 8.13579 80.6744 7.81497C81.4114 7.49415 82.1744 7.33374 82.9635 7.33374C83.9693 7.33374 84.8364 7.50716 85.5647 7.85399C86.3018 8.20083 86.9044 8.68639 87.3726 9.31069C87.8408 9.92632 88.1877 10.6547 88.4131 11.4957C88.6386 12.3282 88.7513 13.2386 88.7513 14.2271V15.3066H78.2422V13.3426H86.3451V13.1606C86.3104 12.5363 86.1804 11.9293 85.9549 11.3397C85.7382 10.7501 85.3913 10.2645 84.9144 9.88297C84.4375 9.50145 83.7872 9.31069 82.9635 9.31069C82.4172 9.31069 81.9143 9.42775 81.4548 9.66186C80.9952 9.88731 80.6007 10.2255 80.2712 10.6764C79.9417 11.1272 79.6859 11.6778 79.5038 12.3282C79.3217 12.9785 79.2307 13.7285 79.2307 14.5782V15.1245C79.2307 15.7922 79.3217 16.4208 79.5038 17.0104C79.6946 17.5914 79.9677 18.1029 80.3232 18.5452C80.6874 18.9874 81.1253 19.3342 81.6369 19.5857C82.1571 19.8371 82.7467 19.9628 83.4057 19.9628C84.2554 19.9628 84.9751 19.7894 85.5647 19.4426C86.1544 19.0957 86.6703 18.6319 87.1125 18.0509L88.5692 19.2085C88.2657 19.668 87.8799 20.1059 87.4116 20.5221C86.9434 20.9383 86.3668 21.2765 85.6818 21.5366C85.0055 21.7967 84.2034 21.9268 83.2756 21.9268Z" fill="#183758"/>
<path d="M73.5725 1.68896V21.6666H71.1533V1.68896H73.5725Z" fill="#183758"/>
<path d="M59.1098 2.72949V21.6666H56.5996V2.72949H59.1098ZM67.0436 11.2486V13.3036H58.5636V11.2486H67.0436ZM68.3313 2.72949V4.78448H58.5636V2.72949H68.3313Z" fill="#183758"/>
<circle cx="33.3782" cy="11.6976" r="11.6976" fill="#183758"/>
<path d="M20.6631 3.61133C17.1379 4.51527 14.5322 7.71443 14.5322 11.5215C14.5323 15.3284 17.1381 18.5267 20.6631 19.4307V23.0381C15.1729 22.0749 11 17.2877 11 11.5215C11 5.7552 15.1728 0.967007 20.6631 0.00390625V3.61133Z" fill="#183758"/>
</svg>
